<svg width="258" height="111" viewBox="0 0 258 111" fill="none" xmlns="http://www.w3.org/2000/svg">
<g clip-path="url(#clip0)">
<path fill-rule="evenodd" clip-rule="evenodd" d="M257.841 0.453613H0.984863V109.863H258V0.453613H257.841Z" fill="#FFFFFE"/>
<path fill-rule="evenodd" clip-rule="evenodd" d="M257.053 0.515625H0.197754V109.927H257.216V0.515625H257.053Z" fill="#FFFFFE"/>
<path fill-rule="evenodd" clip-rule="evenodd" d="M2.46143 108.695H256.363V1.62598H2.46143V108.695Z" fill="#1A1919"/>
<path fill-rule="evenodd" clip-rule="evenodd" d="M6.16699 23.1854H77.0038V5.43018H6.16699V23.1854Z" fill="#FFFFFE"/>
<path fill-rule="evenodd" clip-rule="evenodd" d="M6.13477 92.3249H77.0122V27.0576H6.13477V92.3249Z" fill="#FFFFFE"/>
<path fill-rule="evenodd" clip-rule="evenodd" d="M6.15039 104.835V96.1675H20.3794V98.1963H11.868V99.4339H19.0704V101.455H11.868V102.814H20.7094V104.835H6.15039Z" fill="#FFFFFE"/>
<path fill-rule="evenodd" clip-rule="evenodd" d="M32.7992 98.6936C32.7099 98.4017 32.3908 98.2087 31.9743 98.105C31.5686 97.9964 31.0655 97.9458 30.4975 97.9458C29.2399 97.9458 28.6773 98.1267 28.6773 98.4524C28.6773 99.7333 38.7115 98.9276 38.7115 102.081C38.7115 104.088 35.3388 105.067 30.5462 105.067C25.9402 105.067 22.9381 103.731 22.8164 102.167H28.2906C28.415 102.479 28.7558 102.703 29.2399 102.848C29.6997 102.992 30.3001 103.067 30.8681 103.067C32.2961 103.067 33.2454 102.841 33.2454 102.43C33.2454 101.118 23.2032 102.02 23.2032 98.7153C23.2032 96.8747 26.4054 95.9531 30.768 95.9531C35.6093 95.9531 37.8189 97.1762 38.2382 98.6936H32.7992Z" fill="#FFFFFE"/>
<path fill-rule="evenodd" clip-rule="evenodd" d="M47.2715 101.815V104.835H41.5566V96.1675H49.7949C55.6018 96.1675 57.522 96.9612 57.522 98.645C57.522 99.6462 56.6268 100.478 54.5902 100.77C56.4321 101.101 57.5464 101.306 57.5464 103.053C57.5464 104.182 57.4734 104.572 58.1522 104.572V104.835H52.3562C52.2129 104.637 52.0695 104.087 52.0695 103.32C52.0695 102.182 51.68 101.815 49.016 101.815H47.2715ZM47.2715 99.926H49.5191C51.2879 99.926 52.2399 99.6968 52.2399 99.101C52.2399 98.4906 51.2716 98.1963 49.9356 98.1963H47.2715V99.926Z" fill="#FFFFFE"/>
<path fill-rule="evenodd" clip-rule="evenodd" d="M61.0356 104.835V96.1675H69.374C73.3011 96.1675 76.4277 96.6379 76.4277 98.3531C76.4277 99.2481 75.262 99.8995 74.1504 100.235C76.0382 100.478 77.0497 101.291 77.0497 102.223C77.0497 104.15 74.0773 104.835 69.5363 104.835H61.0356ZM66.7478 101.217V102.814H69.2442C70.6614 102.814 71.7216 102.664 71.7216 102.02C71.7216 101.262 70.3936 101.217 68.568 101.217H66.7478ZM66.7478 98.1963V99.6462H69.1306C70.2692 99.6462 71.0968 99.3856 71.0968 98.8887C71.0968 98.2084 69.969 98.1963 68.7682 98.1963H66.7478Z" fill="#FFFFFE"/>
<path fill-rule="evenodd" clip-rule="evenodd" d="M81.8193 105.152H252.641V5.71045H81.8193V105.152Z" fill="#FFFFFE"/>
<path d="M122.636 24.7104V13.2091H124.927L127.65 21.3526C127.901 22.111 128.084 22.6785 128.199 23.0551C128.329 22.6366 128.533 22.0221 128.811 21.2114L131.564 13.2091H133.612V24.7104H132.145V15.0841L128.803 24.7104H127.43L124.103 14.9194V24.7104H122.636ZM141.324 23.6827C140.801 24.1273 140.296 24.4411 139.81 24.6241C139.329 24.8072 138.811 24.8987 138.257 24.8987C137.341 24.8987 136.638 24.6765 136.146 24.2319C135.654 23.7821 135.409 23.2094 135.409 22.5137C135.409 22.1058 135.5 21.7344 135.683 21.3997C135.872 21.0597 136.115 20.7877 136.413 20.5838C136.716 20.3798 137.056 20.2255 137.433 20.1209C137.71 20.0477 138.128 19.977 138.688 19.9091C139.828 19.7731 140.668 19.6109 141.206 19.4226C141.212 19.2291 141.214 19.1062 141.214 19.0539C141.214 18.4786 141.081 18.0732 140.814 17.8379C140.453 17.5188 139.917 17.3593 139.206 17.3593C138.542 17.3593 138.05 17.477 137.731 17.7123C137.417 17.9425 137.184 18.353 137.033 18.9441L135.652 18.7558C135.777 18.1648 135.984 17.6888 136.272 17.3279C136.559 16.9618 136.975 16.682 137.519 16.4885C138.063 16.2897 138.693 16.1903 139.41 16.1903C140.121 16.1903 140.699 16.274 141.144 16.4414C141.588 16.6087 141.915 16.8206 142.124 17.0769C142.334 17.3279 142.48 17.647 142.564 18.034C142.611 18.2746 142.634 18.7087 142.634 19.3363V21.2192C142.634 22.532 142.663 23.3637 142.721 23.7141C142.783 24.0593 142.904 24.3914 143.081 24.7104H141.607C141.46 24.4176 141.366 24.075 141.324 23.6827ZM141.206 20.5288C140.694 20.7381 139.925 20.9159 138.9 21.0623C138.319 21.146 137.909 21.2402 137.668 21.3448C137.428 21.4494 137.242 21.6037 137.111 21.8076C136.98 22.0064 136.915 22.2287 136.915 22.4745C136.915 22.8511 137.056 23.1649 137.339 23.416C137.626 23.667 138.045 23.7925 138.594 23.7925C139.138 23.7925 139.622 23.6749 140.045 23.4395C140.469 23.1989 140.78 22.872 140.979 22.4588C141.131 22.1398 141.206 21.669 141.206 21.0466V20.5288ZM144.768 27.9192L144.611 26.5933C144.92 26.677 145.189 26.7189 145.419 26.7189C145.733 26.7189 145.984 26.6666 146.173 26.562C146.361 26.4574 146.515 26.3109 146.635 26.1226C146.724 25.9814 146.868 25.631 147.067 25.0713C147.093 24.9929 147.135 24.8778 147.192 24.7261L144.031 16.3786H145.553L147.287 21.2035C147.512 21.8155 147.713 22.4588 147.891 23.1335C148.053 22.485 148.246 21.8521 148.471 21.2349L150.252 16.3786H151.664L148.495 24.8517C148.155 25.767 147.891 26.3972 147.702 26.7424C147.451 27.2079 147.164 27.5479 146.839 27.7623C146.515 27.982 146.128 28.0918 145.678 28.0918C145.406 28.0918 145.103 28.0343 144.768 27.9192ZM162.773 21.6586L164.162 21.839C164.01 22.7962 163.621 23.5467 162.993 24.0907C162.371 24.6294 161.605 24.8987 160.694 24.8987C159.554 24.8987 158.636 24.5274 157.941 23.7847C157.25 23.0368 156.905 21.9672 156.905 20.5759C156.905 19.6763 157.054 18.8891 157.352 18.2144C157.65 17.5397 158.103 17.035 158.71 16.7003C159.322 16.3603 159.986 16.1903 160.702 16.1903C161.607 16.1903 162.347 16.4205 162.923 16.8807C163.498 17.3358 163.867 17.9843 164.029 18.8264L162.656 19.0382C162.525 18.4786 162.292 18.0575 161.958 17.7751C161.628 17.4927 161.228 17.3514 160.757 17.3514C160.046 17.3514 159.468 17.6077 159.023 18.1203C158.579 18.6276 158.357 19.4331 158.357 20.5367C158.357 21.656 158.571 22.4693 159 22.9766C159.429 23.4839 159.988 23.7376 160.679 23.7376C161.233 23.7376 161.696 23.5676 162.067 23.2277C162.439 22.8877 162.674 22.3647 162.773 21.6586ZM164.845 20.5445C164.845 19.0016 165.274 17.8588 166.131 17.1161C166.848 16.4989 167.721 16.1903 168.752 16.1903C169.897 16.1903 170.833 16.5669 171.56 17.3201C172.287 18.068 172.651 19.1036 172.651 20.4269C172.651 21.4991 172.489 22.3437 172.164 22.9609C171.845 23.5729 171.377 24.0488 170.76 24.3888C170.148 24.7288 169.479 24.8987 168.752 24.8987C167.585 24.8987 166.641 24.5248 165.919 23.7768C165.203 23.0289 164.845 21.9515 164.845 20.5445ZM166.296 20.5445C166.296 21.6115 166.529 22.4117 166.994 22.9452C167.46 23.4735 168.046 23.7376 168.752 23.7376C169.453 23.7376 170.036 23.4709 170.501 22.9374C170.967 22.4039 171.199 21.5906 171.199 20.4975C171.199 19.4671 170.964 18.6878 170.493 18.1595C170.028 17.626 169.447 17.3593 168.752 17.3593C168.046 17.3593 167.46 17.6234 166.994 18.1517C166.529 18.6799 166.296 19.4776 166.296 20.5445ZM174.314 24.7104V16.3786H175.585V17.5633C176.197 16.648 177.081 16.1903 178.237 16.1903C178.739 16.1903 179.199 16.2819 179.618 16.4649C180.041 16.6427 180.358 16.8781 180.567 17.171C180.776 17.4639 180.923 17.8117 181.006 18.2144C181.059 18.476 181.085 18.9336 181.085 19.5874V24.7104H179.673V19.6423C179.673 19.067 179.618 18.6381 179.508 18.3557C179.398 18.068 179.202 17.8405 178.919 17.6731C178.642 17.5005 178.315 17.4142 177.939 17.4142C177.337 17.4142 176.817 17.6051 176.377 17.9869C175.943 18.3687 175.726 19.0931 175.726 20.1601V24.7104H174.314ZM186.341 23.4473L186.545 24.6948C186.148 24.7784 185.792 24.8203 185.478 24.8203C184.966 24.8203 184.568 24.7392 184.286 24.5771C184.003 24.4149 183.804 24.2031 183.689 23.9416C183.574 23.6749 183.517 23.1178 183.517 22.2705V17.477H182.481V16.3786H183.517V14.3153L184.921 13.468V16.3786H186.341V17.477H184.921V22.349C184.921 22.7517 184.945 23.0106 184.992 23.1257C185.044 23.2407 185.125 23.3323 185.235 23.4003C185.35 23.4683 185.512 23.5023 185.721 23.5023C185.878 23.5023 186.085 23.4839 186.341 23.4473ZM193.167 23.6827C192.644 24.1273 192.139 24.4411 191.652 24.6241C191.171 24.8072 190.653 24.8987 190.099 24.8987C189.184 24.8987 188.48 24.6765 187.989 24.2319C187.497 23.7821 187.251 23.2094 187.251 22.5137C187.251 22.1058 187.343 21.7344 187.526 21.3997C187.714 21.0597 187.957 20.7877 188.255 20.5838C188.559 20.3798 188.899 20.2255 189.275 20.1209C189.553 20.0477 189.971 19.977 190.531 19.9091C191.671 19.7731 192.51 19.6109 193.049 19.4226C193.054 19.2291 193.057 19.1062 193.057 19.0539C193.057 18.4786 192.923 18.0732 192.657 17.8379C192.296 17.5188 191.76 17.3593 191.048 17.3593C190.384 17.3593 189.892 17.477 189.573 17.7123C189.26 17.9425 189.027 18.353 188.875 18.9441L187.494 18.7558C187.62 18.1648 187.827 17.6888 188.114 17.3279C188.402 16.9618 188.818 16.682 189.362 16.4885C189.906 16.2897 190.536 16.1903 191.252 16.1903C191.964 16.1903 192.542 16.274 192.986 16.4414C193.431 16.6087 193.758 16.8206 193.967 17.0769C194.176 17.3279 194.323 17.647 194.406 18.034C194.453 18.2746 194.477 18.7087 194.477 19.3363V21.2192C194.477 22.532 194.506 23.3637 194.563 23.7141C194.626 24.0593 194.746 24.3914 194.924 24.7104H193.449C193.303 24.4176 193.208 24.075 193.167 23.6827ZM193.049 20.5288C192.536 20.7381 191.768 20.9159 190.742 21.0623C190.162 21.146 189.751 21.2402 189.511 21.3448C189.27 21.4494 189.084 21.6037 188.954 21.8076C188.823 22.0064 188.758 22.2287 188.758 22.4745C188.758 22.8511 188.899 23.1649 189.181 23.416C189.469 23.667 189.887 23.7925 190.436 23.7925C190.98 23.7925 191.464 23.6749 191.888 23.4395C192.311 23.1989 192.623 22.872 192.821 22.4588C192.973 22.1398 193.049 21.669 193.049 21.0466V20.5288ZM196.681 14.8331V13.2091H198.094V14.8331H196.681ZM196.681 24.7104V16.3786H198.094V24.7104H196.681ZM200.251 24.7104V16.3786H201.522V17.5633C202.134 16.648 203.018 16.1903 204.174 16.1903C204.676 16.1903 205.136 16.2819 205.555 16.4649C205.978 16.6427 206.295 16.8781 206.504 17.171C206.713 17.4639 206.86 17.8117 206.943 18.2144C206.996 18.476 207.022 18.9336 207.022 19.5874V24.7104H205.609V19.6423C205.609 19.067 205.555 18.6381 205.445 18.3557C205.335 18.068 205.139 17.8405 204.856 17.6731C204.579 17.5005 204.252 17.4142 203.876 17.4142C203.274 17.4142 202.754 17.6051 202.314 17.9869C201.88 18.3687 201.663 19.0931 201.663 20.1601V24.7104H200.251ZM95.7344 39.6586L97.123 39.839C96.9713 40.7962 96.5817 41.5467 95.9541 42.0907C95.3317 42.6294 94.5654 42.8987 93.6554 42.8987C92.5152 42.8987 91.5972 42.5274 90.9016 41.7847C90.2112 41.0368 89.866 39.9672 89.866 38.5759C89.866 37.6763 90.0151 36.8891 90.3132 36.2144C90.6113 35.5397 91.0637 35.035 91.6705 34.7003C92.2824 34.3603 92.9466 34.1903 93.6632 34.1903C94.568 34.1903 95.3081 34.4205 95.8834 34.8807C96.4588 35.3358 96.8275 35.9843 96.9897 36.8264L95.6167 37.0382C95.4859 36.4786 95.2532 36.0575 94.9185 35.7751C94.589 35.4927 94.1888 35.3514 93.7181 35.3514C93.0068 35.3514 92.4289 35.6077 91.9843 36.1203C91.5397 36.6276 91.3174 37.4331 91.3174 38.5367C91.3174 39.656 91.5319 40.4693 91.9607 40.9766C92.3896 41.4839 92.9493 41.7376 93.6397 41.7376C94.1941 41.7376 94.6569 41.5676 95.0283 41.2277C95.3996 40.8877 95.635 40.3647 95.7344 39.6586ZM97.8056 38.5445C97.8056 37.0016 98.2345 35.8588 99.0922 35.1161C99.8088 34.4989 100.682 34.1903 101.713 34.1903C102.858 34.1903 103.794 34.5669 104.521 35.3201C105.248 36.068 105.612 37.1036 105.612 38.4269C105.612 39.4991 105.45 40.3437 105.125 40.9609C104.806 41.5729 104.338 42.0488 103.721 42.3888C103.109 42.7288 102.44 42.8987 101.713 42.8987C100.546 42.8987 99.6022 42.5248 98.8804 41.7768C98.1639 41.0289 97.8056 39.9515 97.8056 38.5445ZM99.257 38.5445C99.257 39.6115 99.4897 40.4117 99.9552 40.9452C100.421 41.4735 101.007 41.7376 101.713 41.7376C102.413 41.7376 102.997 41.4709 103.462 40.9374C103.928 40.4039 104.16 39.5906 104.16 38.4975C104.16 37.4671 103.925 36.6878 103.454 36.1595C102.989 35.626 102.408 35.3593 101.713 35.3593C101.007 35.3593 100.421 35.6234 99.9552 36.1517C99.4897 36.6799 99.257 37.4776 99.257 38.5445ZM107.275 42.7104V34.3786H108.546V35.5633C109.158 34.648 110.042 34.1903 111.198 34.1903C111.7 34.1903 112.16 34.2819 112.579 34.4649C113.002 34.6427 113.319 34.8781 113.528 35.171C113.737 35.4639 113.883 35.8117 113.967 36.2144C114.019 36.476 114.046 36.9336 114.046 37.5874V42.7104H112.633V37.6423C112.633 37.067 112.579 36.6381 112.469 36.3557C112.359 36.068 112.163 35.8405 111.88 35.6731C111.603 35.5005 111.276 35.4142 110.9 35.4142C110.298 35.4142 109.778 35.6051 109.338 35.9869C108.904 36.3687 108.687 37.0931 108.687 38.1601V42.7104H107.275ZM119.302 41.4473L119.506 42.6948C119.109 42.7784 118.753 42.8203 118.439 42.8203C117.926 42.8203 117.529 42.7392 117.247 42.5771C116.964 42.4149 116.765 42.2031 116.65 41.9416C116.535 41.6749 116.478 41.1178 116.478 40.2705V35.477H115.442V34.3786H116.478V32.3153L117.882 31.468V34.3786H119.302V35.477H117.882V40.349C117.882 40.7517 117.906 41.0106 117.953 41.1257C118.005 41.2407 118.086 41.3323 118.196 41.4003C118.311 41.4683 118.473 41.5023 118.682 41.5023C118.839 41.5023 119.046 41.4839 119.302 41.4473ZM126.394 40.0273L127.854 40.2078C127.623 41.0603 127.197 41.7219 126.575 42.1927C125.952 42.6634 125.157 42.8987 124.19 42.8987C122.971 42.8987 122.003 42.5248 121.287 41.7768C120.576 41.0237 120.22 39.9698 120.22 38.6151C120.22 37.2134 120.581 36.1255 121.303 35.3514C122.024 34.5774 122.961 34.1903 124.111 34.1903C125.225 34.1903 126.135 34.5695 126.841 35.3279C127.548 36.0863 127.901 37.1533 127.901 38.5288C127.901 38.6125 127.898 38.7381 127.893 38.9054H121.679C121.731 39.8207 121.99 40.5216 122.456 41.008C122.921 41.4944 123.502 41.7376 124.198 41.7376C124.715 41.7376 125.157 41.6016 125.523 41.3297C125.89 41.0577 126.18 40.6236 126.394 40.0273ZM121.758 37.7443H126.41C126.347 37.0434 126.169 36.5178 125.876 36.1674C125.427 35.6234 124.844 35.3514 124.127 35.3514C123.478 35.3514 122.932 35.5685 122.487 36.0026C122.048 36.4367 121.805 37.0173 121.758 37.7443ZM129.634 42.7104V34.3786H130.905V35.5633C131.517 34.648 132.401 34.1903 133.557 34.1903C134.059 34.1903 134.52 34.2819 134.938 34.4649C135.362 34.6427 135.678 34.8781 135.887 35.171C136.096 35.4639 136.243 35.8117 136.327 36.2144C136.379 36.476 136.405 36.9336 136.405 37.5874V42.7104H134.993V37.6423C134.993 37.067 134.938 36.6381 134.828 36.3557C134.718 36.068 134.522 35.8405 134.24 35.6731C133.962 35.5005 133.636 35.4142 133.259 35.4142C132.658 35.4142 132.137 35.6051 131.698 35.9869C131.264 36.3687 131.047 37.0931 131.047 38.1601V42.7104H129.634ZM141.661 41.4473L141.865 42.6948C141.468 42.7784 141.112 42.8203 140.798 42.8203C140.286 42.8203 139.888 42.7392 139.606 42.5771C139.324 42.4149 139.125 42.2031 139.01 41.9416C138.895 41.6749 138.837 41.1178 138.837 40.2705V35.477H137.802V34.3786H138.837V32.3153L140.241 31.468V34.3786H141.661V35.477H140.241V40.349C140.241 40.7517 140.265 41.0106 140.312 41.1257C140.364 41.2407 140.445 41.3323 140.555 41.4003C140.67 41.4683 140.832 41.5023 141.042 41.5023C141.199 41.5023 141.405 41.4839 141.661 41.4473ZM147.53 32.8331V31.2091H148.942V32.8331H147.53ZM147.53 42.7104V34.3786H148.942V42.7104H147.53ZM151.1 42.7104V34.3786H152.37V35.5633C152.982 34.648 153.866 34.1903 155.022 34.1903C155.524 34.1903 155.985 34.2819 156.403 34.4649C156.827 34.6427 157.143 34.8781 157.352 35.171C157.562 35.4639 157.708 35.8117 157.792 36.2144C157.844 36.476 157.87 36.9336 157.87 37.5874V42.7104H156.458V37.6423C156.458 37.067 156.403 36.6381 156.293 36.3557C156.183 36.068 155.987 35.8405 155.705 35.6731C155.428 35.5005 155.101 35.4142 154.724 35.4142C154.123 35.4142 153.602 35.6051 153.163 35.9869C152.729 36.3687 152.512 37.0931 152.512 38.1601V42.7104H151.1ZM165.48 41.6827C164.957 42.1273 164.452 42.4411 163.966 42.6241C163.485 42.8072 162.967 42.8987 162.413 42.8987C161.497 42.8987 160.794 42.6765 160.302 42.2319C159.811 41.7821 159.565 41.2094 159.565 40.5137C159.565 40.1058 159.656 39.7344 159.839 39.3997C160.028 39.0597 160.271 38.7877 160.569 38.5838C160.872 38.3798 161.212 38.2255 161.589 38.1209C161.866 38.0477 162.284 37.977 162.844 37.9091C163.984 37.7731 164.824 37.6109 165.362 37.4226C165.368 37.2291 165.37 37.1062 165.37 37.0539C165.37 36.4786 165.237 36.0732 164.97 35.8379C164.609 35.5188 164.073 35.3593 163.362 35.3593C162.698 35.3593 162.206 35.477 161.887 35.7123C161.573 35.9425 161.34 36.353 161.189 36.9441L159.808 36.7558C159.933 36.1648 160.14 35.6888 160.428 35.3279C160.715 34.9618 161.131 34.682 161.675 34.4885C162.219 34.2897 162.849 34.1903 163.566 34.1903C164.277 34.1903 164.855 34.274 165.3 34.4414C165.744 34.6087 166.071 34.8206 166.28 35.0769C166.49 35.3279 166.636 35.647 166.72 36.034C166.767 36.2746 166.79 36.7087 166.79 37.3363V39.2192C166.79 40.532 166.819 41.3637 166.877 41.7141C166.939 42.0593 167.06 42.3914 167.238 42.7104H165.763C165.616 42.4176 165.522 42.075 165.48 41.6827ZM165.362 38.5288C164.85 38.7381 164.081 38.9159 163.056 39.0623C162.475 39.146 162.065 39.2402 161.824 39.3448C161.584 39.4494 161.398 39.6037 161.267 39.8076C161.136 40.0064 161.071 40.2287 161.071 40.4745C161.071 40.8511 161.212 41.1649 161.495 41.416C161.782 41.667 162.201 41.7925 162.75 41.7925C163.294 41.7925 163.778 41.6749 164.201 41.4395C164.625 41.1989 164.936 40.872 165.135 40.4588C165.287 40.1398 165.362 39.669 165.362 39.0466V38.5288ZM168.987 45.9035V34.3786H170.274V35.4613C170.577 35.0376 170.92 34.7212 171.301 34.512C171.683 34.2975 172.146 34.1903 172.69 34.1903C173.401 34.1903 174.029 34.3734 174.573 34.7395C175.117 35.1056 175.528 35.6234 175.805 36.2929C176.082 36.9571 176.221 37.6868 176.221 38.4818C176.221 39.3343 176.066 40.1032 175.758 40.7883C175.454 41.4683 175.01 41.9913 174.424 42.3574C173.843 42.7183 173.231 42.8987 172.588 42.8987C172.117 42.8987 171.694 42.7994 171.317 42.6006C170.946 42.4019 170.64 42.1508 170.399 41.8475V45.9035H168.987ZM170.266 38.5916C170.266 39.6638 170.483 40.4562 170.917 40.9688C171.351 41.4813 171.877 41.7376 172.494 41.7376C173.122 41.7376 173.658 41.4735 174.102 40.9452C174.552 40.4117 174.777 39.588 174.777 38.4739C174.777 37.4122 174.557 36.6172 174.118 36.0889C173.684 35.5607 173.163 35.2965 172.557 35.2965C171.955 35.2965 171.422 35.579 170.956 36.1438C170.496 36.7035 170.266 37.5194 170.266 38.5916ZM177.931 45.9035V34.3786H179.217V35.4613C179.521 35.0376 179.863 34.7212 180.245 34.512C180.627 34.2975 181.09 34.1903 181.634 34.1903C182.345 34.1903 182.973 34.3734 183.517 34.7395C184.061 35.1056 184.471 35.6234 184.749 36.2929C185.026 36.9571 185.164 37.6868 185.164 38.4818C185.164 39.3343 185.01 40.1032 184.701 40.7883C184.398 41.4683 183.954 41.9913 183.368 42.3574C182.787 42.7183 182.175 42.8987 181.532 42.8987C181.061 42.8987 180.638 42.7994 180.261 42.6006C179.89 42.4019 179.584 42.1508 179.343 41.8475V45.9035H177.931ZM179.21 38.5916C179.21 39.6638 179.427 40.4562 179.861 40.9688C180.295 41.4813 180.821 41.7376 181.438 41.7376C182.065 41.7376 182.601 41.4735 183.046 40.9452C183.496 40.4117 183.721 39.588 183.721 38.4739C183.721 37.4122 183.501 36.6172 183.062 36.0889C182.628 35.5607 182.107 35.2965 181.501 35.2965C180.899 35.2965 180.366 35.579 179.9 36.1438C179.44 36.7035 179.21 37.5194 179.21 38.5916ZM186.859 42.7104V34.3786H188.13V35.6417C188.454 35.0507 188.752 34.661 189.024 34.4728C189.301 34.2845 189.605 34.1903 189.934 34.1903C190.41 34.1903 190.894 34.342 191.386 34.6454L190.899 35.9555C190.554 35.7516 190.209 35.6496 189.864 35.6496C189.555 35.6496 189.278 35.7437 189.032 35.932C188.786 36.1151 188.611 36.3714 188.506 36.7009C188.35 37.203 188.271 37.7521 188.271 38.3484V42.7104H186.859ZM191.7 38.5445C191.7 37.0016 192.128 35.8588 192.986 35.1161C193.703 34.4989 194.576 34.1903 195.607 34.1903C196.752 34.1903 197.688 34.5669 198.415 35.3201C199.142 36.068 199.506 37.1036 199.506 38.4269C199.506 39.4991 199.344 40.3437 199.019 40.9609C198.7 41.5729 198.232 42.0488 197.615 42.3888C197.003 42.7288 196.334 42.8987 195.607 42.8987C194.44 42.8987 193.496 42.5248 192.774 41.7768C192.058 41.0289 191.7 39.9515 191.7 38.5445ZM193.151 38.5445C193.151 39.6115 193.384 40.4117 193.849 40.9452C194.315 41.4735 194.9 41.7376 195.607 41.7376C196.307 41.7376 196.891 41.4709 197.356 40.9374C197.822 40.4039 198.054 39.5906 198.054 38.4975C198.054 37.4671 197.819 36.6878 197.348 36.1595C196.883 35.626 196.302 35.3593 195.607 35.3593C194.9 35.3593 194.315 35.6234 193.849 36.1517C193.384 36.6799 193.151 37.4776 193.151 38.5445ZM201.169 45.9035V34.3786H202.456V35.4613C202.759 35.0376 203.102 34.7212 203.483 34.512C203.865 34.2975 204.328 34.1903 204.872 34.1903C205.583 34.1903 206.211 34.3734 206.755 34.7395C207.299 35.1056 207.709 35.6234 207.987 36.2929C208.264 36.9571 208.402 37.6868 208.402 38.4818C208.402 39.3343 208.248 40.1032 207.94 40.7883C207.636 41.4683 207.192 41.9913 206.606 42.3574C206.025 42.7183 205.413 42.8987 204.77 42.8987C204.299 42.8987 203.876 42.7994 203.499 42.6006C203.128 42.4019 202.822 42.1508 202.581 41.8475V45.9035H201.169ZM202.448 38.5916C202.448 39.6638 202.665 40.4562 203.099 40.9688C203.533 41.4813 204.059 41.7376 204.676 41.7376C205.303 41.7376 205.84 41.4735 206.284 40.9452C206.734 40.4117 206.959 39.588 206.959 38.4739C206.959 37.4122 206.739 36.6172 206.3 36.0889C205.866 35.5607 205.345 35.2965 204.739 35.2965C204.137 35.2965 203.604 35.579 203.138 36.1438C202.678 36.7035 202.448 37.5194 202.448 38.5916ZM210.097 42.7104V34.3786H211.368V35.6417C211.692 35.0507 211.99 34.661 212.262 34.4728C212.54 34.2845 212.843 34.1903 213.172 34.1903C213.648 34.1903 214.132 34.342 214.624 34.6454L214.137 35.9555C213.792 35.7516 213.447 35.6496 213.102 35.6496C212.793 35.6496 212.516 35.7437 212.27 35.932C212.024 36.1151 211.849 36.3714 211.745 36.7009C211.588 37.203 211.509 37.7521 211.509 38.3484V42.7104H210.097ZM215.471 32.8331V31.2091H216.883V32.8331H215.471ZM215.471 42.7104V34.3786H216.883V42.7104H215.471ZM224.478 41.6827C223.955 42.1273 223.45 42.4411 222.964 42.6241C222.482 42.8072 221.965 42.8987 221.41 42.8987C220.495 42.8987 219.791 42.6765 219.3 42.2319C218.808 41.7821 218.562 41.2094 218.562 40.5137C218.562 40.1058 218.654 39.7344 218.837 39.3997C219.025 39.0597 219.268 38.7877 219.566 38.5838C219.87 38.3798 220.21 38.2255 220.586 38.1209C220.864 38.0477 221.282 37.977 221.842 37.9091C222.982 37.7731 223.821 37.6109 224.36 37.4226C224.365 37.2291 224.368 37.1062 224.368 37.0539C224.368 36.4786 224.234 36.0732 223.968 35.8379C223.607 35.5188 223.071 35.3593 222.359 35.3593C221.695 35.3593 221.204 35.477 220.884 35.7123C220.571 35.9425 220.338 36.353 220.186 36.9441L218.805 36.7558C218.931 36.1648 219.138 35.6888 219.425 35.3279C219.713 34.9618 220.129 34.682 220.673 34.4885C221.217 34.2897 221.847 34.1903 222.563 34.1903C223.275 34.1903 223.853 34.274 224.297 34.4414C224.742 34.6087 225.069 34.8206 225.278 35.0769C225.487 35.3279 225.634 35.647 225.717 36.034C225.764 36.2746 225.788 36.7087 225.788 37.3363V39.2192C225.788 40.532 225.817 41.3637 225.874 41.7141C225.937 42.0593 226.057 42.3914 226.235 42.7104H224.76C224.614 42.4176 224.52 42.075 224.478 41.6827ZM224.36 38.5288C223.847 38.7381 223.079 38.9159 222.053 39.0623C221.473 39.146 221.062 39.2402 220.822 39.3448C220.581 39.4494 220.395 39.6037 220.265 39.8076C220.134 40.0064 220.069 40.2287 220.069 40.4745C220.069 40.8511 220.21 41.1649 220.492 41.416C220.78 41.667 221.198 41.7925 221.747 41.7925C222.291 41.7925 222.775 41.6749 223.199 41.4395C223.623 41.1989 223.934 40.872 224.132 40.4588C224.284 40.1398 224.36 39.669 224.36 39.0466V38.5288ZM231.068 41.4473L231.272 42.6948C230.874 42.7784 230.519 42.8203 230.205 42.8203C229.692 42.8203 229.295 42.7392 229.012 42.5771C228.73 42.4149 228.531 42.2031 228.416 41.9416C228.301 41.6749 228.244 41.1178 228.244 40.2705V35.477H227.208V34.3786H228.244V32.3153L229.648 31.468V34.3786H231.068V35.477H229.648V40.349C229.648 40.7517 229.671 41.0106 229.718 41.1257C229.771 41.2407 229.852 41.3323 229.962 41.4003C230.077 41.4683 230.239 41.5023 230.448 41.5023C230.605 41.5023 230.812 41.4839 231.068 41.4473ZM238.16 40.0273L239.619 40.2078C239.389 41.0603 238.963 41.7219 238.341 42.1927C237.718 42.6634 236.923 42.8987 235.956 42.8987C234.737 42.8987 233.769 42.5248 233.053 41.7768C232.341 41.0237 231.986 39.9698 231.986 38.6151C231.986 37.2134 232.347 36.1255 233.068 35.3514C233.79 34.5774 234.726 34.1903 235.877 34.1903C236.991 34.1903 237.901 34.5695 238.607 35.3279C239.313 36.0863 239.666 37.1533 239.666 38.5288C239.666 38.6125 239.664 38.7381 239.659 38.9054H233.445C233.497 39.8207 233.756 40.5216 234.222 41.008C234.687 41.4944 235.268 41.7376 235.963 41.7376C236.481 41.7376 236.923 41.6016 237.289 41.3297C237.655 41.0577 237.946 40.6236 238.16 40.0273ZM233.523 37.7443H238.176C238.113 37.0434 237.935 36.5178 237.642 36.1674C237.193 35.6234 236.609 35.3514 235.893 35.3514C235.244 35.3514 234.698 35.5685 234.253 36.0026C233.814 36.4367 233.571 37.0173 233.523 37.7443ZM124.174 60.7104V53.477H122.927V52.3786H124.174V51.4921C124.174 50.9324 124.224 50.5166 124.323 50.2447C124.459 49.8785 124.697 49.583 125.037 49.3581C125.382 49.128 125.863 49.0129 126.481 49.0129C126.878 49.0129 127.317 49.06 127.799 49.1541L127.587 50.3859C127.294 50.3336 127.017 50.3074 126.755 50.3074C126.326 50.3074 126.023 50.399 125.845 50.582C125.667 50.7651 125.578 51.1077 125.578 51.6098V52.3786H127.202V53.477H125.578V60.7104H124.174ZM127.783 56.5445C127.783 55.0016 128.212 53.8588 129.07 53.1161C129.786 52.4989 130.66 52.1903 131.69 52.1903C132.835 52.1903 133.772 52.5669 134.499 53.3201C135.226 54.068 135.589 55.1036 135.589 56.4269C135.589 57.4991 135.427 58.3437 135.103 58.9609C134.784 59.5729 134.316 60.0488 133.698 60.3888C133.086 60.7288 132.417 60.8987 131.69 60.8987C130.524 60.8987 129.58 60.5248 128.858 59.7768C128.141 59.0289 127.783 57.9515 127.783 56.5445ZM129.234 56.5445C129.234 57.6115 129.467 58.4117 129.933 58.9452C130.398 59.4735 130.984 59.7376 131.69 59.7376C132.391 59.7376 132.974 59.4709 133.439 58.9374C133.905 58.4039 134.138 57.5906 134.138 56.4975C134.138 55.4671 133.902 54.6878 133.432 54.1595C132.966 53.626 132.386 53.3593 131.69 53.3593C130.984 53.3593 130.398 53.6234 129.933 54.1517C129.467 54.6799 129.234 55.4776 129.234 56.5445ZM137.237 60.7104V52.3786H138.508V53.6417C138.832 53.0507 139.13 52.661 139.402 52.4728C139.679 52.2845 139.983 52.1903 140.312 52.1903C140.788 52.1903 141.272 52.342 141.763 52.6454L141.277 53.9555C140.932 53.7516 140.587 53.6496 140.241 53.6496C139.933 53.6496 139.656 53.7437 139.41 53.932C139.164 54.1151 138.989 54.3714 138.884 54.7009C138.727 55.203 138.649 55.7521 138.649 56.3484V60.7104H137.237ZM152.512 57.6586L153.9 57.839C153.749 58.7962 153.359 59.5467 152.731 60.0907C152.109 60.6294 151.343 60.8987 150.433 60.8987C149.292 60.8987 148.375 60.5274 147.679 59.7847C146.989 59.0368 146.643 57.9672 146.643 56.5759C146.643 55.6763 146.792 54.8891 147.09 54.2144C147.389 53.5397 147.841 53.035 148.448 52.7003C149.06 52.3603 149.724 52.1903 150.44 52.1903C151.345 52.1903 152.085 52.4205 152.661 52.8807C153.236 53.3358 153.605 53.9843 153.767 54.8264L152.394 55.0382C152.263 54.4786 152.03 54.0575 151.696 53.7751C151.366 53.4927 150.966 53.3514 150.495 53.3514C149.784 53.3514 149.206 53.6077 148.762 54.1203C148.317 54.6276 148.095 55.4331 148.095 56.5367C148.095 57.656 148.309 58.4693 148.738 58.9766C149.167 59.4839 149.727 59.7376 150.417 59.7376C150.971 59.7376 151.434 59.5676 151.806 59.2277C152.177 58.8877 152.412 58.3647 152.512 57.6586ZM155.109 60.7104V49.2091H156.521V53.3358C157.18 52.5721 158.011 52.1903 159.016 52.1903C159.633 52.1903 160.169 52.3132 160.624 52.5591C161.079 52.7997 161.403 53.1344 161.597 53.5633C161.795 53.9922 161.895 54.6146 161.895 55.4305V60.7104H160.483V55.4305C160.483 54.7244 160.328 54.2118 160.02 53.8928C159.716 53.5685 159.285 53.4064 158.725 53.4064C158.307 53.4064 157.912 53.5162 157.541 53.7359C157.174 53.9503 156.913 54.2432 156.756 54.6146C156.599 54.9859 156.521 55.4985 156.521 56.1523V60.7104H155.109ZM164.06 50.8331V49.2091H165.472V50.8331H164.06ZM164.06 60.7104V52.3786H165.472V60.7104H164.06ZM167.598 60.7104V49.2091H169.011V60.7104H167.598ZM176.613 60.7104V59.6592C176.085 60.4855 175.308 60.8987 174.283 60.8987C173.618 60.8987 173.007 60.7157 172.447 60.3496C171.892 59.9834 171.461 59.4735 171.152 58.8197C170.849 58.1607 170.697 57.4049 170.697 56.5524C170.697 55.7208 170.836 54.9676 171.113 54.2929C171.39 53.613 171.806 53.0925 172.361 52.7317C172.915 52.3708 173.535 52.1903 174.22 52.1903C174.722 52.1903 175.169 52.2975 175.562 52.512C175.954 52.7212 176.273 52.9958 176.519 53.3358V49.2091H177.923V60.7104H176.613ZM172.149 56.5524C172.149 57.6194 172.374 58.417 172.823 58.9452C173.273 59.4735 173.804 59.7376 174.416 59.7376C175.033 59.7376 175.556 59.4866 175.985 58.9845C176.419 58.4771 176.636 57.7057 176.636 56.6701C176.636 55.5299 176.417 54.693 175.977 54.1595C175.538 53.626 174.997 53.3593 174.353 53.3593C173.726 53.3593 173.2 53.6156 172.776 54.1281C172.358 54.6407 172.149 55.4488 172.149 56.5524ZM180.135 60.7104V52.3786H181.406V53.6417C181.731 53.0507 182.029 52.661 182.301 52.4728C182.578 52.2845 182.881 52.1903 183.211 52.1903C183.687 52.1903 184.171 52.342 184.662 52.6454L184.176 53.9555C183.831 53.7516 183.485 53.6496 183.14 53.6496C182.832 53.6496 182.554 53.7437 182.309 53.932C182.063 54.1151 181.888 54.3714 181.783 54.7009C181.626 55.203 181.548 55.7521 181.548 56.3484V60.7104H180.135ZM191.205 58.0273L192.665 58.2078C192.434 59.0603 192.008 59.7219 191.386 60.1927C190.763 60.6634 189.968 60.8987 189.001 60.8987C187.782 60.8987 186.814 60.5248 186.098 59.7768C185.387 59.0237 185.031 57.9698 185.031 56.6151C185.031 55.2134 185.392 54.1255 186.114 53.3514C186.835 52.5774 187.772 52.1903 188.922 52.1903C190.036 52.1903 190.946 52.5695 191.652 53.3279C192.359 54.0863 192.712 55.1533 192.712 56.5288C192.712 56.6125 192.709 56.7381 192.704 56.9054H186.49C186.542 57.8207 186.801 58.5216 187.267 59.008C187.732 59.4944 188.313 59.7376 189.009 59.7376C189.526 59.7376 189.968 59.6016 190.334 59.3297C190.701 59.0577 190.991 58.6236 191.205 58.0273ZM186.569 55.7443H191.221C191.158 55.0434 190.98 54.5178 190.687 54.1674C190.238 53.6234 189.655 53.3514 188.938 53.3514C188.289 53.3514 187.743 53.5685 187.298 54.0026C186.859 54.4367 186.616 55.0173 186.569 55.7443ZM194.445 60.7104V52.3786H195.716V53.5633C196.328 52.648 197.212 52.1903 198.368 52.1903C198.87 52.1903 199.331 52.2819 199.749 52.4649C200.173 52.6427 200.489 52.8781 200.698 53.171C200.907 53.4639 201.054 53.8117 201.138 54.2144C201.19 54.476 201.216 54.9336 201.216 55.5874V60.7104H199.804V55.6423C199.804 55.067 199.749 54.6381 199.639 54.3557C199.529 54.068 199.333 53.8405 199.051 53.6731C198.773 53.5005 198.447 53.4142 198.07 53.4142C197.469 53.4142 196.948 53.6051 196.509 53.9869C196.075 54.3687 195.858 55.0931 195.858 56.1601V60.7104H194.445ZM203.789 60.7104V59.1021H205.398V60.7104H203.789ZM113.167 78.7104L108.711 67.2091H110.358L113.347 75.5644C113.588 76.2339 113.789 76.8615 113.951 77.4473C114.129 76.8197 114.336 76.1921 114.571 75.5644L117.678 67.2091H119.231L114.728 78.7104H113.167ZM120.126 68.8331V67.2091H121.538V68.8331H120.126ZM120.126 78.7104V70.3786H121.538V78.7104H120.126ZM123.131 76.2235L124.527 76.0038C124.606 76.5634 124.823 76.9923 125.178 77.2904C125.539 77.5886 126.041 77.7376 126.685 77.7376C127.333 77.7376 127.814 77.6069 128.128 77.3453C128.442 77.0786 128.599 76.7674 128.599 76.4117C128.599 76.0927 128.46 75.8416 128.183 75.6586C127.99 75.5331 127.508 75.3735 126.739 75.18C125.704 74.9185 124.985 74.6936 124.582 74.5053C124.184 74.3118 123.881 74.0477 123.672 73.7129C123.468 73.3729 123.366 72.999 123.366 72.591C123.366 72.2197 123.45 71.8771 123.617 71.5633C123.79 71.2442 124.022 70.9801 124.315 70.7709C124.535 70.6087 124.833 70.4728 125.21 70.3629C125.591 70.2479 125.999 70.1903 126.434 70.1903C127.087 70.1903 127.66 70.2845 128.152 70.4728C128.649 70.661 129.015 70.9173 129.25 71.2416C129.485 71.5607 129.648 71.9895 129.736 72.5283L128.356 72.7165C128.293 72.2877 128.11 71.9529 127.806 71.7123C127.508 71.4717 127.085 71.3514 126.535 71.3514C125.887 71.3514 125.424 71.4587 125.147 71.6731C124.87 71.8876 124.731 72.1386 124.731 72.4263C124.731 72.6093 124.789 72.7741 124.904 72.9205C125.019 73.0722 125.199 73.1977 125.445 73.2971C125.586 73.3494 126.002 73.4697 126.692 73.658C127.691 73.9247 128.387 74.1444 128.779 74.317C129.177 74.4844 129.488 74.7302 129.713 75.0545C129.938 75.3788 130.05 75.7815 130.05 76.2627C130.05 76.7334 129.912 77.178 129.634 77.5964C129.362 78.0096 128.968 78.3313 128.45 78.5614C127.932 78.7863 127.346 78.8987 126.692 78.8987C125.61 78.8987 124.783 78.6738 124.213 78.224C123.648 77.7742 123.287 77.1074 123.131 76.2235ZM131.737 68.8331V67.2091H133.149V68.8331H131.737ZM131.737 78.7104V70.3786H133.149V78.7104H131.737ZM138.39 77.4473L138.594 78.6948C138.196 78.7784 137.841 78.8203 137.527 78.8203C137.014 78.8203 136.617 78.7392 136.334 78.5771C136.052 78.4149 135.853 78.2031 135.738 77.9416C135.623 77.6749 135.566 77.1178 135.566 76.2705V71.477H134.53V70.3786H135.566V68.3153L136.97 67.468V70.3786H138.39V71.477H136.97V76.349C136.97 76.7517 136.993 77.0106 137.041 77.1257C137.093 77.2407 137.174 77.3323 137.284 77.4003C137.399 77.4683 137.561 77.5023 137.77 77.5023C137.927 77.5023 138.134 77.4839 138.39 77.4473ZM149.954 76.0273L151.413 76.2078C151.183 77.0603 150.757 77.7219 150.135 78.1927C149.512 78.6634 148.717 78.8987 147.75 78.8987C146.531 78.8987 145.563 78.5248 144.847 77.7768C144.135 77.0237 143.78 75.9698 143.78 74.6151C143.78 73.2134 144.141 72.1255 144.862 71.3514C145.584 70.5774 146.52 70.1903 147.671 70.1903C148.785 70.1903 149.695 70.5695 150.401 71.3279C151.107 72.0863 151.46 73.1533 151.46 74.5288C151.46 74.6125 151.458 74.7381 151.453 74.9054H145.239C145.291 75.8207 145.55 76.5216 146.016 77.008C146.481 77.4944 147.062 77.7376 147.757 77.7376C148.275 77.7376 148.717 77.6016 149.083 77.3297C149.449 77.0577 149.74 76.6236 149.954 76.0273ZM145.317 73.7443H149.97C149.907 73.0434 149.729 72.5178 149.436 72.1674C148.986 71.6234 148.403 71.3514 147.687 71.3514C147.038 71.3514 146.492 71.5685 146.047 72.0026C145.608 72.4367 145.365 73.0173 145.317 73.7443ZM152.629 76.2235L154.026 76.0038C154.104 76.5634 154.321 76.9923 154.677 77.2904C155.038 77.5886 155.54 77.7376 156.183 77.7376C156.832 77.7376 157.313 77.6069 157.627 77.3453C157.941 77.0786 158.098 76.7674 158.098 76.4117C158.098 76.0927 157.959 75.8416 157.682 75.6586C157.488 75.5331 157.007 75.3735 156.238 75.18C155.203 74.9185 154.483 74.6936 154.081 74.5053C153.683 74.3118 153.38 74.0477 153.171 73.7129C152.967 73.3729 152.865 72.999 152.865 72.591C152.865 72.2197 152.948 71.8771 153.116 71.5633C153.288 71.2442 153.521 70.9801 153.814 70.7709C154.034 70.6087 154.332 70.4728 154.708 70.3629C155.09 70.2479 155.498 70.1903 155.932 70.1903C156.586 70.1903 157.159 70.2845 157.65 70.4728C158.147 70.661 158.513 70.9173 158.749 71.2416C158.984 71.5607 159.146 71.9895 159.235 72.5283L157.854 72.7165C157.792 72.2877 157.609 71.9529 157.305 71.7123C157.007 71.4717 156.583 71.3514 156.034 71.3514C155.386 71.3514 154.923 71.4587 154.646 71.6731C154.368 71.8876 154.23 72.1386 154.23 72.4263C154.23 72.6093 154.287 72.7741 154.402 72.9205C154.517 73.0722 154.698 73.1977 154.944 73.2971C155.085 73.3494 155.501 73.4697 156.191 73.658C157.19 73.9247 157.886 74.1444 158.278 74.317C158.676 74.4844 158.987 74.7302 159.212 75.0545C159.437 75.3788 159.549 75.7815 159.549 76.2627C159.549 76.7334 159.41 77.178 159.133 77.5964C158.861 78.0096 158.466 78.3313 157.949 78.5614C157.431 78.7863 156.845 78.8987 156.191 78.8987C155.109 78.8987 154.282 78.6738 153.712 78.224C153.147 77.7742 152.786 77.1074 152.629 76.2235ZM161.212 78.7104V70.3786H162.483V71.6417C162.807 71.0507 163.106 70.661 163.378 70.4728C163.655 70.2845 163.958 70.1903 164.288 70.1903C164.764 70.1903 165.247 70.342 165.739 70.6454L165.253 71.9555C164.907 71.7516 164.562 71.6496 164.217 71.6496C163.908 71.6496 163.631 71.7437 163.385 71.932C163.14 72.1151 162.964 72.3714 162.86 72.7009C162.703 73.203 162.624 73.7521 162.624 74.3484V78.7104H161.212ZM167.881 78.7104H166.571V67.2091H167.983V71.3122C168.579 70.5643 169.34 70.1903 170.266 70.1903C170.778 70.1903 171.262 70.2949 171.717 70.5041C172.178 70.7081 172.554 70.9984 172.847 71.375C173.145 71.7463 173.378 72.1961 173.545 72.7244C173.713 73.2527 173.796 73.8175 173.796 74.419C173.796 75.8469 173.443 76.9505 172.737 77.7298C172.031 78.5091 171.184 78.8987 170.195 78.8987C169.212 78.8987 168.44 78.4882 167.881 77.667V78.7104ZM167.865 74.4818C167.865 75.4808 168.001 76.2025 168.273 76.6471C168.718 77.3741 169.319 77.7376 170.078 77.7376C170.695 77.7376 171.228 77.4709 171.678 76.9374C172.128 76.3987 172.353 75.5984 172.353 74.5367C172.353 73.4488 172.136 72.6459 171.702 72.1281C171.273 71.6103 170.752 71.3514 170.14 71.3514C169.523 71.3514 168.99 71.6208 168.54 72.1595C168.09 72.693 167.865 73.4671 167.865 74.4818ZM175.922 78.7104V77.1021H177.531V78.7104H175.922ZM179.469 74.5445C179.469 73.0016 179.897 71.8588 180.755 71.1161C181.472 70.4989 182.345 70.1903 183.376 70.1903C184.521 70.1903 185.457 70.5669 186.184 71.3201C186.911 72.068 187.275 73.1036 187.275 74.4269C187.275 75.4991 187.113 76.3437 186.788 76.9609C186.469 77.5729 186.001 78.0488 185.384 78.3888C184.772 78.7288 184.103 78.8987 183.376 78.8987C182.209 78.8987 181.265 78.5248 180.543 77.7768C179.827 77.0289 179.469 75.9515 179.469 74.5445ZM180.92 74.5445C180.92 75.6115 181.153 76.4117 181.618 76.9452C182.084 77.4735 182.669 77.7376 183.376 77.7376C184.076 77.7376 184.66 77.4709 185.125 76.9374C185.591 76.4039 185.823 75.5906 185.823 74.4975C185.823 73.4671 185.588 72.6878 185.117 72.1595C184.652 71.626 184.071 71.3593 183.376 71.3593C182.669 71.3593 182.084 71.6234 181.618 72.1517C181.153 72.6799 180.92 73.4776 180.92 74.5445ZM188.922 78.7104V70.3786H190.193V71.6417C190.517 71.0507 190.816 70.661 191.088 70.4728C191.365 70.2845 191.668 70.1903 191.998 70.1903C192.474 70.1903 192.957 70.342 193.449 70.6454L192.963 71.9555C192.617 71.7516 192.272 71.6496 191.927 71.6496C191.618 71.6496 191.341 71.7437 191.095 71.932C190.85 72.1151 190.674 72.3714 190.57 72.7009C190.413 73.203 190.334 73.7521 190.334 74.3484V78.7104H188.922ZM194.03 79.4008L195.403 79.6048C195.46 80.0285 195.62 80.3371 195.881 80.5306C196.232 80.7921 196.71 80.9229 197.317 80.9229C197.971 80.9229 198.475 80.7921 198.831 80.5306C199.187 80.2691 199.427 79.903 199.553 79.4322C199.626 79.1446 199.66 78.5405 199.655 77.6199C199.038 78.3469 198.269 78.7104 197.348 78.7104C196.203 78.7104 195.316 78.2973 194.689 77.4709C194.061 76.6445 193.747 75.6534 193.747 74.4975C193.747 73.7025 193.891 72.9702 194.179 72.3007C194.466 71.626 194.882 71.1056 195.426 70.7395C195.975 70.3734 196.619 70.1903 197.356 70.1903C198.339 70.1903 199.15 70.5878 199.788 71.3828V70.3786H201.091V77.5807C201.091 78.8778 200.957 79.7957 200.69 80.3345C200.429 80.8784 200.01 81.3073 199.435 81.6211C198.865 81.9349 198.162 82.0918 197.325 82.0918C196.331 82.0918 195.528 81.8669 194.916 81.4171C194.304 80.9725 194.009 80.3005 194.03 79.4008ZM195.199 74.3955C195.199 75.4886 195.416 76.2862 195.85 76.7883C196.284 77.2904 196.828 77.5415 197.482 77.5415C198.13 77.5415 198.674 77.293 199.113 76.7962C199.553 76.2941 199.772 75.5095 199.772 74.4425C199.772 73.4226 199.545 72.6538 199.09 72.136C198.64 71.6182 198.096 71.3593 197.458 71.3593C196.83 71.3593 196.297 71.6156 195.858 72.1281C195.418 72.6355 195.199 73.3913 195.199 74.3955ZM208.042 78.7104V71.477H206.794V70.3786H208.042V69.4921C208.042 68.9324 208.091 68.5166 208.191 68.2447C208.327 67.8785 208.565 67.583 208.905 67.3581C209.25 67.128 209.731 67.0129 210.348 67.0129C210.746 67.0129 211.185 67.06 211.666 67.1541L211.454 68.3859C211.161 68.3336 210.884 68.3074 210.623 68.3074C210.194 68.3074 209.89 68.399 209.713 68.582C209.535 68.7651 209.446 69.1077 209.446 69.6098V70.3786H211.07V71.477H209.446V78.7104H208.042ZM211.65 74.5445C211.65 73.0016 212.079 71.8588 212.937 71.1161C213.654 70.4989 214.527 70.1903 215.557 70.1903C216.703 70.1903 217.639 70.5669 218.366 71.3201C219.093 72.068 219.457 73.1036 219.457 74.4269C219.457 75.4991 219.294 76.3437 218.97 76.9609C218.651 77.5729 218.183 78.0488 217.566 78.3888C216.954 78.7288 216.284 78.8987 215.557 78.8987C214.391 78.8987 213.447 78.5248 212.725 77.7768C212.009 77.0289 211.65 75.9515 211.65 74.5445ZM213.102 74.5445C213.102 75.6115 213.335 76.4117 213.8 76.9452C214.266 77.4735 214.851 77.7376 215.557 77.7376C216.258 77.7376 216.841 77.4709 217.307 76.9374C217.772 76.4039 218.005 75.5906 218.005 74.4975C218.005 73.4671 217.77 72.6878 217.299 72.1595C216.834 71.626 216.253 71.3593 215.557 71.3593C214.851 71.3593 214.266 71.6234 213.8 72.1517C213.335 72.6799 213.102 73.4776 213.102 74.5445ZM221.104 78.7104V70.3786H222.375V71.6417C222.699 71.0507 222.998 70.661 223.27 70.4728C223.547 70.2845 223.85 70.1903 224.18 70.1903C224.656 70.1903 225.139 70.342 225.631 70.6454L225.145 71.9555C224.799 71.7516 224.454 71.6496 224.109 71.6496C223.8 71.6496 223.523 71.7437 223.277 71.932C223.032 72.1151 222.856 72.3714 222.752 72.7009C222.595 73.203 222.516 73.7521 222.516 74.3484V78.7104H221.104ZM103.705 96.7104V88.3786H104.976V89.6417C105.301 89.0507 105.599 88.661 105.871 88.4728C106.148 88.2845 106.451 88.1903 106.781 88.1903C107.257 88.1903 107.74 88.342 108.232 88.6454L107.746 89.9555C107.401 89.7516 107.055 89.6496 106.71 89.6496C106.402 89.6496 106.124 89.7437 105.879 89.932C105.633 90.1151 105.457 90.3714 105.353 90.7009C105.196 91.203 105.118 91.7521 105.118 92.3484V96.7104H103.705ZM114.508 95.6827C113.985 96.1273 113.481 96.4411 112.994 96.6241C112.513 96.8072 111.995 96.8987 111.441 96.8987C110.526 96.8987 109.822 96.6765 109.33 96.2319C108.839 95.7821 108.593 95.2094 108.593 94.5137C108.593 94.1058 108.685 93.7344 108.868 93.3997C109.056 93.0597 109.299 92.7877 109.597 92.5838C109.901 92.3798 110.241 92.2255 110.617 92.1209C110.894 92.0477 111.313 91.977 111.872 91.9091C113.013 91.7731 113.852 91.6109 114.391 91.4226C114.396 91.2291 114.399 91.1062 114.399 91.0539C114.399 90.4786 114.265 90.0732 113.999 89.8379C113.638 89.5188 113.102 89.3593 112.39 89.3593C111.726 89.3593 111.234 89.477 110.915 89.7123C110.601 89.9425 110.369 90.353 110.217 90.9441L108.836 90.7558C108.962 90.1648 109.168 89.6888 109.456 89.3279C109.744 88.9618 110.159 88.682 110.703 88.4885C111.247 88.2897 111.878 88.1903 112.594 88.1903C113.306 88.1903 113.883 88.274 114.328 88.4414C114.773 88.6087 115.099 88.8206 115.309 89.0769C115.518 89.3279 115.664 89.647 115.748 90.034C115.795 90.2746 115.819 90.7087 115.819 91.3363V93.2192C115.819 94.532 115.847 95.3637 115.905 95.7141C115.968 96.0593 116.088 96.3914 116.266 96.7104H114.791C114.644 96.4176 114.55 96.075 114.508 95.6827ZM114.391 92.5288C113.878 92.7381 113.109 92.9159 112.084 93.0623C111.504 93.146 111.093 93.2402 110.853 93.3448C110.612 93.4494 110.426 93.6037 110.295 93.8076C110.165 94.0064 110.099 94.2287 110.099 94.4745C110.099 94.8511 110.241 95.1649 110.523 95.416C110.811 95.667 111.229 95.7925 111.778 95.7925C112.322 95.7925 112.806 95.6749 113.23 95.4395C113.653 95.1989 113.965 94.872 114.163 94.4588C114.315 94.1398 114.391 93.669 114.391 93.0466V92.5288ZM121.099 95.4473L121.303 96.6948C120.905 96.7784 120.549 96.8203 120.236 96.8203C119.723 96.8203 119.326 96.7392 119.043 96.5771C118.761 96.4149 118.562 96.2031 118.447 95.9416C118.332 95.6749 118.274 95.1178 118.274 94.2705V89.477H117.239V88.3786H118.274V86.3153L119.679 85.468V88.3786H121.099V89.477H119.679V94.349C119.679 94.7517 119.702 95.0106 119.749 95.1257C119.802 95.2407 119.883 95.3323 119.992 95.4003C120.107 95.4683 120.27 95.5023 120.479 95.5023C120.636 95.5023 120.842 95.4839 121.099 95.4473ZM122.495 86.8331V85.2091H123.907V86.8331H122.495ZM122.495 96.7104V88.3786H123.907V96.7104H122.495ZM126.065 96.7104V88.3786H127.336V89.5633C127.948 88.648 128.832 88.1903 129.987 88.1903C130.49 88.1903 130.95 88.2819 131.368 88.4649C131.792 88.6427 132.108 88.8781 132.318 89.171C132.527 89.4639 132.673 89.8117 132.757 90.2144C132.809 90.476 132.835 90.9336 132.835 91.5874V96.7104H131.423V91.6423C131.423 91.067 131.368 90.6381 131.258 90.3557C131.149 90.068 130.952 89.8405 130.67 89.6731C130.393 89.5005 130.066 89.4142 129.689 89.4142C129.088 89.4142 128.567 89.6051 128.128 89.9869C127.694 90.3687 127.477 91.0931 127.477 92.1601V96.7104H126.065ZM134.75 97.4008L136.123 97.6048C136.18 98.0285 136.34 98.3371 136.601 98.5306C136.952 98.7921 137.43 98.9229 138.037 98.9229C138.691 98.9229 139.195 98.7921 139.551 98.5306C139.907 98.2691 140.147 97.903 140.273 97.4322C140.346 97.1446 140.38 96.5405 140.375 95.6199C139.758 96.3469 138.989 96.7104 138.068 96.7104C136.923 96.7104 136.036 96.2973 135.409 95.4709C134.781 94.6445 134.467 93.6534 134.467 92.4975C134.467 91.7025 134.611 90.9702 134.899 90.3007C135.186 89.626 135.602 89.1056 136.146 88.7395C136.695 88.3734 137.339 88.1903 138.076 88.1903C139.059 88.1903 139.87 88.5878 140.508 89.3828V88.3786H141.811V95.5807C141.811 96.8778 141.677 97.7957 141.41 98.3345C141.149 98.8784 140.73 99.3073 140.155 99.6211C139.585 99.9349 138.882 100.092 138.045 100.092C137.051 100.092 136.248 99.8669 135.636 99.4171C135.024 98.9725 134.729 98.3005 134.75 97.4008ZM135.919 92.3955C135.919 93.4886 136.136 94.2862 136.57 94.7883C137.004 95.2904 137.548 95.5415 138.202 95.5415C138.85 95.5415 139.394 95.293 139.833 94.7962C140.273 94.2941 140.492 93.5095 140.492 92.4425C140.492 91.4226 140.265 90.6538 139.81 90.136C139.36 89.6182 138.816 89.3593 138.178 89.3593C137.55 89.3593 137.017 89.6156 136.578 90.1281C136.138 90.6355 135.919 91.3913 135.919 92.3955ZM148.432 86.8331V85.2091H149.844V86.8331H148.432ZM148.432 96.7104V88.3786H149.844V96.7104H148.432ZM152.002 96.7104V88.3786H153.273V89.5633C153.885 88.648 154.769 88.1903 155.924 88.1903C156.427 88.1903 156.887 88.2819 157.305 88.4649C157.729 88.6427 158.045 88.8781 158.255 89.171C158.464 89.4639 158.61 89.8117 158.694 90.2144C158.746 90.476 158.772 90.9336 158.772 91.5874V96.7104H157.36V91.6423C157.36 91.067 157.305 90.6381 157.195 90.3557C157.086 90.068 156.889 89.8405 156.607 89.6731C156.33 89.5005 156.003 89.4142 155.626 89.4142C155.025 89.4142 154.504 89.6051 154.065 89.9869C153.631 90.3687 153.414 91.0931 153.414 92.1601V96.7104H152.002ZM161.283 96.7104V89.477H160.035V88.3786H161.283V87.4921C161.283 86.9324 161.333 86.5166 161.432 86.2447C161.568 85.8785 161.806 85.583 162.146 85.3581C162.491 85.128 162.972 85.0129 163.589 85.0129C163.987 85.0129 164.426 85.06 164.907 85.1541L164.696 86.3859C164.403 86.3336 164.126 86.3074 163.864 86.3074C163.435 86.3074 163.132 86.399 162.954 86.582C162.776 86.7651 162.687 87.1077 162.687 87.6098V88.3786H164.311V89.477H162.687V96.7104H161.283ZM164.892 92.5445C164.892 91.0016 165.321 89.8588 166.178 89.1161C166.895 88.4989 167.768 88.1903 168.799 88.1903C169.944 88.1903 170.88 88.5669 171.607 89.3201C172.334 90.068 172.698 91.1036 172.698 92.4269C172.698 93.4991 172.536 94.3437 172.212 94.9609C171.892 95.5729 171.424 96.0488 170.807 96.3888C170.195 96.7288 169.526 96.8987 168.799 96.8987C167.632 96.8987 166.688 96.5248 165.967 95.7768C165.25 95.0289 164.892 93.9515 164.892 92.5445ZM166.343 92.5445C166.343 93.6115 166.576 94.4117 167.041 94.9452C167.507 95.4735 168.093 95.7376 168.799 95.7376C169.5 95.7376 170.083 95.4709 170.548 94.9374C171.014 94.4039 171.247 93.5906 171.247 92.4975C171.247 91.4671 171.011 90.6878 170.54 90.1595C170.075 89.626 169.494 89.3593 168.799 89.3593C168.093 89.3593 167.507 89.6234 167.041 90.1517C166.576 90.6799 166.343 91.4776 166.343 92.5445ZM174.345 96.7104V88.3786H175.616V89.6417C175.941 89.0507 176.239 88.661 176.511 88.4728C176.788 88.2845 177.091 88.1903 177.421 88.1903C177.897 88.1903 178.381 88.342 178.872 88.6454L178.386 89.9555C178.041 89.7516 177.695 89.6496 177.35 89.6496C177.042 89.6496 176.764 89.7437 176.519 89.932C176.273 90.1151 176.098 90.3714 175.993 90.7009C175.836 91.203 175.758 91.7521 175.758 92.3484V96.7104H174.345ZM179.712 96.7104V88.3786H180.975V89.5476C181.236 89.1396 181.584 88.8127 182.018 88.5669C182.452 88.3159 182.947 88.1903 183.501 88.1903C184.118 88.1903 184.623 88.3185 185.015 88.5748C185.413 88.831 185.693 89.1893 185.855 89.6496C186.514 88.6767 187.371 88.1903 188.428 88.1903C189.254 88.1903 189.89 88.4205 190.334 88.8807C190.779 89.3358 191.001 90.0392 191.001 90.9911V96.7104H189.597V91.4619C189.597 90.897 189.55 90.4916 189.456 90.2458C189.367 89.9948 189.202 89.7934 188.961 89.6417C188.721 89.49 188.438 89.4142 188.114 89.4142C187.528 89.4142 187.042 89.6103 186.655 90.0026C186.268 90.3897 186.074 91.0121 186.074 91.8698V96.7104H184.662V91.2971C184.662 90.6695 184.547 90.1988 184.317 89.8849C184.087 89.5711 183.71 89.4142 183.187 89.4142C182.79 89.4142 182.421 89.5188 182.081 89.728C181.746 89.9372 181.503 90.2432 181.351 90.6459C181.2 91.0487 181.124 91.6292 181.124 92.3876V96.7104H179.712ZM198.533 95.6827C198.01 96.1273 197.505 96.4411 197.019 96.6241C196.538 96.8072 196.02 96.8987 195.465 96.8987C194.55 96.8987 193.847 96.6765 193.355 96.2319C192.863 95.7821 192.617 95.2094 192.617 94.5137C192.617 94.1058 192.709 93.7344 192.892 93.3997C193.08 93.0597 193.324 92.7877 193.622 92.5838C193.925 92.3798 194.265 92.2255 194.642 92.1209C194.919 92.0477 195.337 91.977 195.897 91.9091C197.037 91.7731 197.877 91.6109 198.415 91.4226C198.42 91.2291 198.423 91.1062 198.423 91.0539C198.423 90.4786 198.29 90.0732 198.023 89.8379C197.662 89.5188 197.126 89.3593 196.415 89.3593C195.75 89.3593 195.259 89.477 194.94 89.7123C194.626 89.9425 194.393 90.353 194.241 90.9441L192.861 90.7558C192.986 90.1648 193.193 89.6888 193.48 89.3279C193.768 88.9618 194.184 88.682 194.728 88.4885C195.272 88.2897 195.902 88.1903 196.619 88.1903C197.33 88.1903 197.908 88.274 198.352 88.4414C198.797 88.6087 199.124 88.8206 199.333 89.0769C199.542 89.3279 199.689 89.647 199.772 90.034C199.82 90.2746 199.843 90.7087 199.843 91.3363V93.2192C199.843 94.532 199.872 95.3637 199.929 95.7141C199.992 96.0593 200.112 96.3914 200.29 96.7104H198.815C198.669 96.4176 198.575 96.075 198.533 95.6827ZM198.415 92.5288C197.903 92.7381 197.134 92.9159 196.109 93.0623C195.528 93.146 195.118 93.2402 194.877 93.3448C194.636 93.4494 194.451 93.6037 194.32 93.8076C194.189 94.0064 194.124 94.2287 194.124 94.4745C194.124 94.8511 194.265 95.1649 194.547 95.416C194.835 95.667 195.254 95.7925 195.803 95.7925C196.347 95.7925 196.83 95.6749 197.254 95.4395C197.678 95.1989 197.989 94.872 198.188 94.4588C198.339 94.1398 198.415 93.669 198.415 93.0466V92.5288ZM205.123 95.4473L205.327 96.6948C204.93 96.7784 204.574 96.8203 204.26 96.8203C203.747 96.8203 203.35 96.7392 203.068 96.5771C202.785 96.4149 202.586 96.2031 202.471 95.9416C202.356 95.6749 202.299 95.1178 202.299 94.2705V89.477H201.263V88.3786H202.299V86.3153L203.703 85.468V88.3786H205.123V89.477H203.703V94.349C203.703 94.7517 203.727 95.0106 203.774 95.1257C203.826 95.2407 203.907 95.3323 204.017 95.4003C204.132 95.4683 204.294 95.5023 204.503 95.5023C204.66 95.5023 204.867 95.4839 205.123 95.4473ZM206.52 86.8331V85.2091H207.932V86.8331H206.52ZM206.52 96.7104V88.3786H207.932V96.7104H206.52ZM209.564 92.5445C209.564 91.0016 209.992 89.8588 210.85 89.1161C211.567 88.4989 212.44 88.1903 213.471 88.1903C214.616 88.1903 215.552 88.5669 216.279 89.3201C217.006 90.068 217.37 91.1036 217.37 92.4269C217.37 93.4991 217.208 94.3437 216.883 94.9609C216.564 95.5729 216.096 96.0488 215.479 96.3888C214.867 96.7288 214.198 96.8987 213.471 96.8987C212.304 96.8987 211.36 96.5248 210.638 95.7768C209.922 95.0289 209.564 93.9515 209.564 92.5445ZM211.015 92.5445C211.015 93.6115 211.248 94.4117 211.713 94.9452C212.179 95.4735 212.764 95.7376 213.471 95.7376C214.171 95.7376 214.755 95.4709 215.22 94.9374C215.686 94.4039 215.918 93.5906 215.918 92.4975C215.918 91.4671 215.683 90.6878 215.212 90.1595C214.747 89.626 214.166 89.3593 213.471 89.3593C212.764 89.3593 212.179 89.6234 211.713 90.1517C211.248 90.6799 211.015 91.4776 211.015 92.5445ZM219.033 96.7104V88.3786H220.304V89.5633C220.916 88.648 221.8 88.1903 222.956 88.1903C223.458 88.1903 223.918 88.2819 224.336 88.4649C224.76 88.6427 225.077 88.8781 225.286 89.171C225.495 89.4639 225.641 89.8117 225.725 90.2144C225.777 90.476 225.804 90.9336 225.804 91.5874V96.7104H224.391V91.6423C224.391 91.067 224.336 90.6381 224.227 90.3557C224.117 90.068 223.921 89.8405 223.638 89.6731C223.361 89.5005 223.034 89.4142 222.658 89.4142C222.056 89.4142 221.536 89.6051 221.096 89.9869C220.662 90.3687 220.445 91.0931 220.445 92.1601V96.7104H219.033ZM228.377 96.7104V95.1021H229.985V96.7104H228.377Z" fill="black"/>
<path fill-rule="evenodd" clip-rule="evenodd" d="M27.9255 60.8234C27.9255 60.8234 26.6867 61.1549 25.465 61.4769C24.7434 58.8119 23.0898 52.6826 22.3682 50.0138C23.5823 49.6994 24.8305 49.3642 24.8305 49.3642C25.9992 49.0573 27.9558 48.5365 29.3839 53.8323C29.6567 54.8608 30.8992 60.0317 27.9255 60.8234ZM43.7279 68.7294C42.6407 64.7044 40.4814 62.3501 37.4073 61.5281C39.3203 59.2892 40.4075 55.8287 38.9415 50.3927C36.8845 42.803 31.6644 39.1247 25.3154 40.8161L10.8824 44.6555L10.5869 44.7312L22.5406 88.9602L32.1985 86.388C32.1985 86.388 28.2797 71.9039 27.594 69.3526L28.0637 69.2275C29.5411 68.843 30.6189 68.8468 31.3405 69.2673C32.619 70.0003 33.21 72.2126 33.8843 74.7697L34.426 76.8077C35.0548 79.27 35.7197 81.8176 37.3846 83.9863L38.0324 84.8406L49.0749 81.9142L47.5919 80.0163C46.8456 79.0617 44.9913 73.4078 43.7279 68.7294Z" fill="#231F20"/>
<path fill-rule="evenodd" clip-rule="evenodd" d="M59.8479 53.0972C59.8479 53.0972 57.9481 53.6048 56.3362 54.0329C55.6316 51.4171 53.9421 45.1931 53.2432 42.5755C54.6751 42.1967 56.2377 41.7818 56.2377 41.7818C57.9386 41.3273 59.882 41.3273 61.4238 47.0266C62.1606 49.737 61.3916 52.6862 59.8479 53.0972ZM55.8248 33.4668L42.82 36.9235L41.2573 37.3364L53.2072 81.5711L63.0773 78.9535C63.0773 78.9535 59.2323 64.7383 58.5428 62.2021C60.2077 61.7513 62.7856 61.077 62.7856 61.077C70.4851 59.0219 73.4285 53.0536 71.0477 44.2726C67.9565 32.8228 61.0696 32.0784 55.8248 33.4668Z" fill="#231F20"/>
<path fill-rule="evenodd" clip-rule="evenodd" d="M11.8702 13.5779H12.446C12.5729 13.5779 12.6808 13.5306 12.7661 13.4359C12.8513 13.3412 12.9195 13.2181 12.9706 13.0665C13.0218 12.9188 13.0577 12.754 13.0805 12.5722C13.0975 12.3903 13.1089 12.2161 13.1089 12.0532C13.1089 11.555 13.0502 11.2027 12.9327 10.9963C12.8134 10.7898 12.6543 10.6894 12.446 10.6894H11.8702V13.5779ZM11.8702 19.478H10.5708V9.09082H12.9706C13.4176 9.09082 13.7718 9.32001 14.0351 9.78027C14.2927 10.2405 14.4253 10.9186 14.4253 11.8088C14.4253 12.4718 14.3382 13.0343 14.1601 13.4927C13.9859 13.953 13.6904 14.2409 13.2718 14.3564V14.3848C13.3419 14.4038 13.4385 14.4322 13.5654 14.4719C13.6904 14.5098 13.8154 14.5951 13.9385 14.7295C14.0616 14.8659 14.1677 15.0629 14.2605 15.3281C14.3533 15.5895 14.3969 15.9588 14.3969 16.4285C14.3969 16.5914 14.4007 16.8225 14.4026 17.118C14.4044 17.4135 14.412 17.7222 14.4253 18.0385C14.4348 18.3548 14.4518 18.6484 14.4707 18.9155C14.4916 19.1863 14.5143 19.372 14.5446 19.478H13.2718C13.1847 19.1598 13.1411 18.8303 13.1373 18.4855C13.1354 18.1389 13.1354 17.7999 13.1354 17.4646C13.1354 17.1578 13.1354 16.8642 13.1316 16.5858C13.1278 16.3073 13.0975 16.0649 13.0426 15.8603C12.9877 15.6539 12.8986 15.4872 12.7698 15.3622C12.6392 15.2391 12.4535 15.1765 12.2073 15.1765H11.8702V19.478Z" fill="#231F20"/>
<path fill-rule="evenodd" clip-rule="evenodd" d="M17.4084 11.09H17.3895L16.7966 15.579H18.0354L17.4084 11.09ZM14.9082 19.479L16.6243 9.08984H18.3346L20.0204 19.479H18.6547L18.3119 17.1757H16.539L16.1867 19.479H14.9082Z" fill="#231F20"/>
<path fill-rule="evenodd" clip-rule="evenodd" d="M23.8119 9.09033V10.8159H22.3686V19.4776H21.0711V10.8159H19.624V9.09033H23.8119Z" fill="#231F20"/>
<mask id="mask0" mask-type="alpha" maskUnits="userSpaceOnUse" x="4" y="0" width="76" height="113">
<path d="M4.00195 112.75H79.1691V0H4.00195V112.75Z" fill="white"/>
</mask>
<g mask="url(#mask0)">
<path fill-rule="evenodd" clip-rule="evenodd" d="M24.4141 19.4771H25.7134V9.08984H24.4141V19.4771Z" fill="#231F20"/>
<path fill-rule="evenodd" clip-rule="evenodd" d="M26.8125 19.4785V9.09131H28.5664L30.2181 16.2832H30.2351V9.09131H31.4455V19.4785H29.7351L28.0437 11.8813H28.0266V19.4785H26.8125Z" fill="#231F20"/>
<path fill-rule="evenodd" clip-rule="evenodd" d="M35.3761 12.2828C35.3761 12.0441 35.3685 11.8131 35.3533 11.5952C35.3382 11.3736 35.306 11.1804 35.251 11.0175C35.1961 10.8547 35.1166 10.7221 35.0162 10.6217C34.9101 10.5213 34.7737 10.472 34.6033 10.472C34.4006 10.472 34.2472 10.5781 34.1392 10.7884C34.0294 10.9986 33.9498 11.2827 33.8968 11.6369C33.8437 11.9911 33.8153 12.4002 33.8077 12.8681C33.7964 13.334 33.7926 13.8151 33.7926 14.3133C33.7926 15.1277 33.8077 15.7869 33.838 16.2831C33.8665 16.7832 33.9157 17.1696 33.982 17.4442C34.0521 17.7151 34.1468 17.9007 34.2661 17.9954C34.3873 18.0901 34.5408 18.1393 34.7207 18.1393C34.8306 18.1393 34.9423 18.1204 35.0522 18.0844C35.1658 18.0427 35.2681 17.9954 35.3685 17.9386V15.6372H34.6639V14.0405H36.6659V19.3042C36.5807 19.3345 36.4633 19.3667 36.3174 19.4065C36.1716 19.4444 36.0144 19.4823 35.8496 19.5201C35.6829 19.5599 35.5162 19.5883 35.3495 19.6148C35.1829 19.6376 35.0389 19.6508 34.9101 19.6508C34.3665 19.6508 33.9309 19.5523 33.6089 19.3554C33.285 19.1603 33.0406 18.8421 32.8758 18.4045C32.7092 17.9689 32.5993 17.4063 32.5539 16.715C32.5008 16.0255 32.48 15.1864 32.48 14.1996C32.48 13.5462 32.4951 12.9022 32.5273 12.2695C32.5576 11.6369 32.6429 11.0725 32.7849 10.58C32.9232 10.0856 33.141 9.68599 33.4384 9.37915C33.732 9.07231 34.1468 8.91699 34.6809 8.91699C34.9953 8.91699 35.2795 8.99086 35.5352 9.1405C35.7909 9.29013 36.0049 9.50416 36.181 9.78828C36.3572 10.0705 36.4822 10.4228 36.5674 10.8376C36.6527 11.2543 36.683 11.7373 36.6659 12.2828H35.3761Z" fill="#231F20"/>
<path fill-rule="evenodd" clip-rule="evenodd" d="M41.0064 13.6518H41.728C41.8265 13.6518 41.9155 13.612 41.9951 13.5306C42.0747 13.4491 42.1466 13.3412 42.2016 13.2124C42.2603 13.0817 42.3038 12.9339 42.336 12.7673C42.3682 12.5987 42.3834 12.4282 42.3834 12.2559C42.3834 12.0437 42.372 11.8429 42.3531 11.6497C42.3322 11.4584 42.2963 11.2918 42.2413 11.1478C42.1864 11.0039 42.1087 10.8921 42.0159 10.8107C41.9231 10.7292 41.8057 10.6894 41.6579 10.6894H41.0064V13.6518ZM39.707 9.09082H42.05C42.3455 9.09082 42.5974 9.1628 42.8096 9.30485C43.016 9.4488 43.1865 9.66094 43.3191 9.9318C43.4517 10.2045 43.5483 10.5341 43.607 10.9186C43.6676 11.3012 43.6998 11.7274 43.6998 12.1971C43.6998 12.4945 43.679 12.8241 43.6411 13.1764C43.6032 13.5306 43.5274 13.862 43.4081 14.1689C43.285 14.4776 43.1107 14.7314 42.8815 14.9398C42.6523 15.1443 42.3474 15.2485 41.9705 15.2485H41.0064V19.478H39.707V9.09082Z" fill="#231F20"/>
<path fill-rule="evenodd" clip-rule="evenodd" d="M44.479 19.4785V9.09131H47.8675V10.688H45.7784V13.2488H47.7028V14.8456H45.7784V17.8799H47.9376V19.4785H44.479Z" fill="#231F20"/>
<path fill-rule="evenodd" clip-rule="evenodd" d="M48.7866 19.4785V9.09131H50.5406L52.1922 16.2832H52.2111V9.09131H53.4196V19.4785H51.7111L50.0159 11.8813H49.9988V19.4785H48.7866Z" fill="#231F20"/>
<path fill-rule="evenodd" clip-rule="evenodd" d="M55.8355 17.8803H56.4644C56.6595 17.8803 56.8167 17.8178 56.9417 17.6871C57.0648 17.5564 57.1614 17.35 57.2277 17.0621C57.2959 16.7742 57.3451 16.4029 57.3717 15.9465C57.3963 15.49 57.4095 14.9369 57.4095 14.2853C57.4095 13.8042 57.4039 13.3478 57.3963 12.9178C57.3868 12.486 57.3565 12.1052 57.2959 11.7719C57.241 11.4442 57.1482 11.179 57.0269 10.982C56.9038 10.7851 56.7296 10.6885 56.506 10.6885H55.8355V17.8803ZM54.5381 9.08984H56.703C57.1292 9.08984 57.472 9.20538 57.7372 9.43457C58.0005 9.66565 58.2051 10.0009 58.3509 10.4422C58.4967 10.8854 58.5971 11.4253 58.6464 12.0617C58.6994 12.7 58.724 13.4216 58.724 14.2266V15.168C58.724 15.5298 58.7108 15.9048 58.6824 16.2969C58.6521 16.6927 58.6009 17.0772 58.5214 17.4561C58.4475 17.8368 58.3282 18.1739 58.1747 18.4713C58.0194 18.7687 57.8206 19.0111 57.5724 19.1967C57.3262 19.3843 57.0193 19.479 56.6538 19.479H54.5381V9.08984Z" fill="#231F20"/>
<path fill-rule="evenodd" clip-rule="evenodd" d="M59.7676 19.4771H61.065V9.08984H59.7676V19.4771Z" fill="#231F20"/>
<path fill-rule="evenodd" clip-rule="evenodd" d="M62.1655 19.4785V9.09131H63.9195L65.5692 16.2832H65.5882V9.09131H66.7985V19.4785H65.0881L63.3929 11.8813H63.3759V19.4785H62.1655Z" fill="#231F20"/>
<path fill-rule="evenodd" clip-rule="evenodd" d="M70.7296 12.2828C70.7296 12.0441 70.722 11.8131 70.7068 11.5952C70.6917 11.3736 70.6576 11.1804 70.6046 11.0175C70.5477 10.8547 70.4701 10.7221 70.3659 10.6217C70.2636 10.5213 70.1272 10.472 69.953 10.472C69.7522 10.472 69.5969 10.5781 69.4889 10.7884C69.3791 10.9986 69.2995 11.2827 69.2503 11.6369C69.1972 11.9911 69.1669 12.4002 69.1575 12.8681C69.1518 13.334 69.1461 13.8151 69.1461 14.3133C69.1461 15.1277 69.1594 15.7869 69.1897 16.2831C69.2181 16.7832 69.2673 17.1696 69.3355 17.4442C69.4056 17.7151 69.4984 17.9007 69.6177 17.9954C69.739 18.0901 69.8924 18.1393 70.0742 18.1393C70.1822 18.1393 70.2939 18.1204 70.4057 18.0844C70.5174 18.0427 70.6197 17.9954 70.7201 17.9386V15.6372H70.0136V14.0405H72.0176V19.3042C71.9304 19.3345 71.8149 19.3667 71.6709 19.4065C71.5232 19.4444 71.366 19.4823 71.1993 19.5201C71.0345 19.5599 70.8678 19.5883 70.7012 19.6148C70.5364 19.6376 70.3905 19.6508 70.2636 19.6508C69.72 19.6508 69.2844 19.5523 68.9605 19.3554C68.6385 19.1603 68.3923 18.8421 68.2256 18.4045C68.0589 17.9689 67.9509 17.4063 67.9036 16.715C67.8543 16.0255 67.8335 15.1864 67.8335 14.1996C67.8335 13.5462 67.8468 12.9022 67.879 12.2695C67.9093 11.6369 67.9964 11.0725 68.1365 10.58C68.2748 10.0856 68.4926 9.68599 68.7881 9.37915C69.0836 9.07231 69.4984 8.91699 70.0325 8.91699C70.347 8.91699 70.6311 8.99086 70.8868 9.1405C71.1425 9.29013 71.3565 9.50416 71.5327 9.78828C71.7069 10.0705 71.8357 10.4228 71.9191 10.8376C72.0005 11.2543 72.0346 11.7373 72.0176 12.2828H70.7296Z" fill="#231F20"/>
</g>
</g>
<defs>
<clipPath id="clip0">
<rect width="258" height="111" fill="white"/>
</clipPath>
</defs>
</svg>
