<svg width="90" height="25" viewBox="0 0 90 25" fill="none" xmlns="http://www.w3.org/2000/svg">
<path d="M17.6125 18.3591C17.4124 13.9293 13.5119 13.3856 9.26019 12.3841C6.88576 11.8227 5.48035 11.5858 5.48035 10.5701C5.48035 9.85521 6.42236 9.02741 8.72082 9.02741C10.3145 9.02741 11.3468 9.56017 11.7925 10.2868C11.8599 10.3962 11.9542 10.4866 12.0665 10.5493C12.1788 10.612 12.3053 10.645 12.434 10.6451H16.6721C16.7277 10.645 16.7825 10.6324 16.8325 10.608C16.8824 10.5837 16.9261 10.5484 16.9604 10.5047C16.9946 10.461 17.0184 10.4101 17.0301 10.3559C17.0417 10.3016 17.0408 10.2454 17.0275 10.1916C16.2011 6.79691 12.9759 4.58747 8.72082 4.58747C3.10592 4.58747 0.430999 7.74778 0.430999 10.796C0.430999 15.123 4.70801 15.504 8.6651 16.4844C11.9967 17.3096 12.6011 17.5693 12.6011 18.6601C12.6011 19.7888 11.0944 20.3915 9.09728 20.3915C7.7805 20.3915 6.03998 19.9068 5.20518 18.6146C5.13656 18.5041 5.04123 18.4126 4.92795 18.3485C4.81468 18.2844 4.68709 18.2498 4.55692 18.2479H0.359251C0.305049 18.2485 0.251683 18.2613 0.203055 18.2852C0.154427 18.3091 0.111766 18.3436 0.0781904 18.3861C0.0446147 18.4286 0.020974 18.4781 0.0089949 18.5309C-0.00298419 18.5837 -0.00299864 18.6385 0.00895368 18.6913C0.844604 22.5411 4.38725 24.909 9.10066 24.909C14.0707 24.9065 17.7855 22.1938 17.6125 18.3591Z" fill="white"/>
<path d="M86.6969 18.279H86.6496C85.7736 18.279 84.9335 18.6266 84.3141 19.2452C83.6947 19.8638 83.3467 20.7028 83.3467 21.5776C83.3467 22.4524 83.6947 23.2914 84.3141 23.91C84.9335 24.5286 85.7736 24.8762 86.6496 24.8762H86.6969C87.1306 24.8762 87.5601 24.7908 87.9608 24.6251C88.3616 24.4593 88.7257 24.2163 89.0324 23.91C89.3391 23.6037 89.5824 23.2401 89.7484 22.8399C89.9144 22.4397 89.9998 22.0108 89.9998 21.5776C89.9998 21.1444 89.9144 20.7155 89.7484 20.3153C89.5824 19.9151 89.3391 19.5515 89.0324 19.2452C88.7257 18.9389 88.3616 18.6959 87.9608 18.5301C87.5601 18.3644 87.1306 18.279 86.6969 18.279Z" fill="white"/>
<path d="M64.0003 24.0863C64.0003 24.1822 63.9621 24.2742 63.8942 24.342C63.8263 24.4098 63.7342 24.4479 63.6382 24.4479H59.8761C58.6625 24.443 57.5001 23.9592 56.6423 23.1019C55.7845 22.2446 55.3009 21.0834 55.2969 19.8714L55.3019 0.36923C55.3019 0.321226 55.3114 0.273693 55.3298 0.229353C55.3483 0.185013 55.3753 0.144738 55.4093 0.110833C55.4433 0.0769278 55.4837 0.0500593 55.5281 0.0317656C55.5726 0.0134719 55.6202 0.00411298 55.6683 0.00422384H59.9107C59.9587 0.00411298 60.0064 0.0134719 60.0508 0.0317656C60.0952 0.0500593 60.1356 0.0769278 60.1697 0.110833C60.2037 0.144738 60.2307 0.185013 60.2491 0.229353C60.2675 0.273693 60.277 0.321226 60.277 0.36923V4.70296C60.277 4.79887 60.3152 4.89085 60.3831 4.95867C60.451 5.02649 60.5431 5.06459 60.6391 5.06459H63.6424C63.69 5.06459 63.737 5.07395 63.781 5.09212C63.8249 5.11029 63.8648 5.13693 63.8985 5.17051C63.9321 5.20409 63.9588 5.24396 63.977 5.28784C63.9952 5.33171 64.0045 5.37874 64.0045 5.42623V9.10749C64.0043 9.20326 63.966 9.29503 63.8982 9.36267C63.8303 9.4303 63.7383 9.46829 63.6424 9.46829H60.64C60.5923 9.46818 60.5451 9.47748 60.5011 9.49567C60.457 9.51386 60.417 9.54057 60.3834 9.57426C60.3497 9.60795 60.3231 9.64796 60.3049 9.69198C60.2868 9.73601 60.2776 9.78317 60.2779 9.83077L60.2922 18.4013C60.2922 18.7831 60.4441 19.1494 60.7145 19.4194C60.9848 19.6894 61.3515 19.8411 61.7339 19.8411H63.6424C63.7384 19.8411 63.8305 19.8792 63.8985 19.947C63.9664 20.0148 64.0045 20.1068 64.0045 20.2027L64.0003 24.0863Z" fill="white"/>
<path d="M49.5567 24.4547H53.3323C53.4292 24.4544 53.522 24.4159 53.5905 24.3475C53.659 24.2791 53.6976 24.1864 53.6978 24.0897L53.713 11.2411C53.713 9.69336 53.1078 4.59758 45.2088 4.59758C40.4895 4.59758 37.0954 6.95791 36.2243 10.2354C36.2099 10.2892 36.2081 10.3455 36.219 10.4001C36.23 10.4547 36.2533 10.506 36.2872 10.5502C36.3211 10.5943 36.3648 10.6301 36.4147 10.6547C36.4647 10.6794 36.5197 10.6922 36.5754 10.6923H40.7191C40.8464 10.6946 40.9722 10.665 41.085 10.6061C41.1979 10.5471 41.2941 10.4608 41.3648 10.3551C42.1245 9.16987 43.8177 8.60002 45.3236 8.60002C45.892 8.59365 46.4591 8.65764 47.0117 8.79053C47.4339 8.8877 47.8345 9.06173 48.1935 9.30391C48.4671 9.48489 48.6797 9.74397 48.8038 10.0474C48.9236 10.3745 48.9363 10.8609 48.6915 11.1374C48.5906 11.2454 48.4653 11.3278 48.326 11.3776C47.6364 11.6398 45.1033 12.0925 43.2218 12.5097C41.0727 12.9869 37.5664 13.4842 36.1466 15.6287C35.6342 16.4017 35.3447 17.3762 35.3447 18.607C35.3447 22.8345 39.3575 24.9107 43.4775 24.9107C45.8773 24.9107 47.6296 24.1251 48.9059 23.041C48.9299 23.0181 48.9602 23.0028 48.9929 22.997C49.0256 22.9912 49.0593 22.9952 49.0897 23.0084C49.1202 23.0216 49.146 23.0435 49.1641 23.0714C49.1821 23.0992 49.1916 23.1318 49.1912 23.1649V24.0922C49.1921 24.1885 49.231 24.2806 49.2994 24.3484C49.3678 24.4163 49.4603 24.4545 49.5567 24.4547ZM49.0637 16.9783C49.0637 19.4693 46.5652 20.6158 43.5771 20.6158C41.5733 20.6158 40.2936 19.8402 40.3232 18.6483C40.3595 17.2152 41.7894 16.9084 44.206 16.3832C46.0115 15.9904 46.8598 15.9499 48.6189 15.5402C48.6723 15.5246 48.7286 15.5221 48.7832 15.5327C48.8378 15.5434 48.889 15.567 48.9326 15.6015C48.9762 15.636 49.0108 15.6804 49.0336 15.7311C49.0565 15.7817 49.0668 15.8371 49.0637 15.8926V16.9783Z" fill="white"/>
<path d="M69.8388 17.5701L82.9762 14.7428C83.1662 14.702 83.3334 14.5901 83.4433 14.43C83.5532 14.2699 83.5975 14.0738 83.5671 13.8821C82.3921 6.74295 77 3.64924 71.5877 4.81423C66.2539 5.96236 62.8429 11.3894 64.0238 16.8612C65.2047 22.3329 70.5334 25.8017 75.8681 24.6536C80.3823 23.6825 83.1273 20.5829 83.5865 16.7195C83.5934 16.6622 83.5865 16.6041 83.5663 16.5499C83.5462 16.4958 83.5135 16.4472 83.4708 16.4082C83.4282 16.3693 83.3768 16.341 83.321 16.3258C83.2653 16.3106 83.2067 16.3089 83.1501 16.3208L78.8621 17.2481C78.7402 17.2745 78.6267 17.3306 78.5318 17.4115C78.437 17.4925 78.3637 17.5956 78.3185 17.7117C77.742 19.1726 76.4066 20.083 74.9118 20.4042C72.7897 20.8611 70.7825 19.9953 69.6075 18.1172C69.5765 18.0678 69.5578 18.0117 69.5531 17.9537C69.5484 17.8956 69.5578 17.8372 69.5805 17.7835C69.6032 17.7298 69.6386 17.6824 69.6835 17.6453C69.7285 17.6081 69.7817 17.5823 69.8388 17.5701V17.5701ZM68.6435 13.1689C69.0208 11.075 70.4271 9.52392 72.4681 9.08473C74.6155 8.62194 76.6109 9.44721 77.7395 11.2242C77.77 11.2735 77.7881 11.3295 77.7924 11.3873C77.7968 11.4451 77.7871 11.5031 77.7642 11.5564C77.7414 11.6097 77.7061 11.6568 77.6612 11.6936C77.6163 11.7304 77.5633 11.7559 77.5065 11.7679L69.0782 13.5812C69.0205 13.5938 68.9605 13.5921 68.9035 13.5762C68.8466 13.5604 68.7943 13.5308 68.7515 13.4901C68.7086 13.4495 68.6763 13.3989 68.6575 13.3429C68.6387 13.287 68.6339 13.2272 68.6435 13.1689V13.1689Z" fill="white"/>
<path d="M36.344 5.06207H30.995C30.8653 5.06192 30.7371 5.08996 30.6193 5.14426C30.5015 5.19856 30.397 5.2778 30.313 5.37649L24.3301 12.3875C24.2953 12.4283 24.2489 12.4575 24.1971 12.4712C24.1452 12.4849 24.0904 12.4824 24.04 12.464C23.9896 12.4457 23.9461 12.4123 23.9152 12.3685C23.8844 12.3247 23.8677 12.2725 23.8675 12.2189V0.361644C23.8675 0.265732 23.8294 0.17375 23.7614 0.10593C23.6935 0.03811 23.6014 7.62939e-06 23.5054 7.62939e-06H19.1541C19.0581 7.62939e-06 18.966 0.03811 18.898 0.10593C18.8301 0.17375 18.792 0.265732 18.792 0.361644V24.0736C18.792 24.1696 18.8301 24.2615 18.898 24.3294C18.966 24.3972 19.0581 24.4353 19.1541 24.4353H23.5054C23.6014 24.4353 23.6935 24.3972 23.7614 24.3294C23.8294 24.2615 23.8675 24.1696 23.8675 24.0736V17.2245C23.8679 17.1711 23.8847 17.1192 23.9155 17.0755C23.9463 17.0319 23.9897 16.9987 24.0399 16.9804C24.0901 16.9621 24.1447 16.9595 24.1964 16.973C24.2481 16.9865 24.2944 17.0154 24.3292 17.0559L30.4345 24.1284C30.5183 24.2254 30.6219 24.3033 30.7384 24.3568C30.8549 24.4103 30.9816 24.4382 31.1098 24.4387H36.2436C36.3132 24.4386 36.3812 24.4185 36.4397 24.3808C36.4981 24.3431 36.5445 24.2894 36.5732 24.226C36.6018 24.1627 36.6116 24.0925 36.6014 24.0238C36.5911 23.955 36.5613 23.8907 36.5154 23.8385L28.6079 14.8498C28.5659 14.8019 28.5427 14.7403 28.5427 14.6766C28.5427 14.6129 28.5659 14.5513 28.6079 14.5034L36.5424 5.49788C36.576 5.45995 36.5978 5.41313 36.6053 5.36306C36.6128 5.313 36.6057 5.26183 36.5847 5.21574C36.5637 5.16965 36.5298 5.13061 36.4871 5.10334C36.4444 5.07607 36.3947 5.06174 36.344 5.06207V5.06207Z" fill="white"/>
<path d="M83.3477 5.05026H84.8172V5.32507H84.2407V6.8635H83.9225V5.32507H83.3477V5.05026Z" fill="white"/>
<path d="M85.0235 5.05026H85.4709L85.9722 6.46983H85.9773L86.4652 5.05026H86.9075V6.8635H86.6053V5.46416H86.6002L86.0938 6.8635H85.8321L85.3257 5.46416H85.3206V6.8635H85.0176L85.0235 5.05026Z" fill="white"/>
</svg>
